<svg xmlns="http://www.w3.org/2000/svg" width="2044.025" height="652.815" viewBox="0 0 2044.025 652.815"><path fill="#F2F2F4" d="M1395.262 518.403c0-1.5-.5-2.783-1.5-3.85-1-1.067-2.2-1.6-3.6-1.6s-2.6.533-3.6 1.6c-1 1.067-1.5 2.35-1.5 3.85 0 1.467.5 2.733 1.5 3.8 1 1.067 2.2 1.6 3.6 1.6s2.6-.533 3.6-1.6c1-1.067 1.5-2.333 1.5-3.8z"/><path fill="#F18648" d="M1131.412 640.003c.267-1.167.983-1.883 2.15-2.15l10.55-2.85c1.5-.4 2.25-1.383 2.25-2.95 0-1.567-.75-2.55-2.25-2.95l-10.55-2.85c-1.167-.333-1.883-1.05-2.15-2.15l-2.85-10.55c-.4-1.533-1.383-2.3-2.95-2.3-1.567 0-2.55.767-2.95 2.3l-2.85 10.55c-.333 1.1-1.05 1.817-2.15 2.15l-10.55 2.85c-1.533.4-2.3 1.383-2.3 2.95 0 1.567.767 2.55 2.3 2.95l10.55 2.85c1.1.267 1.817.983 2.15 2.15l2.85 10.55c.4 1.5 1.383 2.25 2.95 2.25s2.55-.75 2.95-2.25l2.85-10.55z"/><path fill="#DE6265" d="M1469.012 518.053l-1.4 5.25c-.167.567-.533.933-1.1 1.1l-5.25 1.4c-.767.2-1.15.7-1.15 1.5 0 .767.383 1.25 1.15 1.45l5.25 1.45c.567.1.933.45 1.1 1.05l1.4 5.3c.2.767.7 1.15 1.5 1.15.767 0 1.25-.383 1.45-1.15l1.45-5.3c.133-.567.483-.917 1.05-1.05l5.25-1.45c.767-.2 1.15-.683 1.15-1.45 0-.8-.383-1.3-1.15-1.5l-5.25-1.4c-.6-.167-.95-.533-1.05-1.1l-1.45-5.25c-.2-.767-.683-1.15-1.45-1.15-.8 0-1.3.383-1.5 1.15z"/><path fill="#5074B5" d="M1435.362 124.303c-1-.267-1.6-.883-1.8-1.85l-2.4-8.9c-.333-1.267-1.167-1.9-2.5-1.9s-2.167.633-2.5 1.9l-2.4 8.9c-.267.967-.883 1.583-1.85 1.85l-8.85 2.4c-1.267.333-1.9 1.167-1.9 2.5 0 1.3.633 2.117 1.9 2.45l8.85 2.4c.967.267 1.583.883 1.85 1.85l2.4 8.9c.333 1.267 1.167 1.9 2.5 1.9s2.167-.633 2.5-1.9l2.4-8.9c.2-.967.8-1.583 1.8-1.85l8.9-2.4c1.267-.333 1.9-1.15 1.9-2.45 0-1.333-.633-2.167-1.9-2.5l-8.9-2.4z"/><path fill="#55A9DB" d="M1255.512 593.703c-.233-.967-.85-1.45-1.85-1.45s-1.633.483-1.9 1.45l-1.8 6.65c-.167.733-.617 1.183-1.35 1.35l-6.65 1.8c-.933.267-1.4.9-1.4 1.9s.467 1.617 1.4 1.85l6.65 1.8c.733.233 1.183.683 1.35 1.35l1.8 6.7c.267.967.9 1.45 1.9 1.45 1 0 1.617-.483 1.85-1.45l1.8-6.7c.2-.7.667-1.15 1.4-1.35l6.65-1.8c.967-.233 1.45-.85 1.45-1.85s-.483-1.633-1.45-1.9l-6.65-1.8c-.7-.133-1.167-.583-1.4-1.35l-1.8-6.65zm-170.75-494.85c-1.433.4-2.15 1.35-2.15 2.85 0 1.467.717 2.4 2.15 2.8l10 2.65c1.1.333 1.783 1.033 2.05 2.1l2.7 9.95c.4 1.467 1.333 2.2 2.8 2.2 1.5 0 2.433-.733 2.8-2.2l2.7-9.95c.3-1.067.983-1.767 2.05-2.1l10-2.65c1.467-.4 2.2-1.333 2.2-2.8 0-1.5-.733-2.45-2.2-2.85l-10-2.7c-1.033-.267-1.717-.95-2.05-2.05l-2.7-10c-.367-1.433-1.3-2.15-2.8-2.15-1.467 0-2.4.717-2.8 2.15l-2.7 10c-.267 1.1-.95 1.783-2.05 2.05l-10 2.7z"/><path fill="#FFF" d="M724.962 595.353c.067-1.033-.367-1.833-1.3-2.4l-7.9-4.55c-.767-.5-1.183-1.183-1.25-2.05l-.75-9.1c-.067-1.033-.6-1.75-1.6-2.15s-1.883-.25-2.65.45l-6.8 6.1c-.667.633-1.433.833-2.3.6l-8.9-2.15c-1.033-.233-1.883.05-2.55.85-.7.833-.833 1.733-.4 2.7l3.7 8.35c.367.833.317 1.633-.15 2.4l-4.75 7.8c-.567.9-.567 1.8 0 2.7.567.9 1.383 1.283 2.45 1.15l9.05-.95c.933-.067 1.683.233 2.25.9l5.95 6.95c.667.833 1.517 1.117 2.55.85s1.667-.917 1.9-1.95l1.9-8.95c.133-.833.633-1.45 1.5-1.85l8.45-3.5c1-.4 1.533-1.133 1.6-2.2z"/><path fill="#F19467" d="M846.362 348.803c.867-.633 1.233-1.467 1.1-2.5-.167-1.033-.75-1.717-1.75-2.05l-8.75-2.75c-.833-.267-1.383-.833-1.65-1.7l-2.7-8.75c-.3-1.033-.983-1.633-2.05-1.8-1.033-.167-1.867.183-2.5 1.05l-5.3 7.45c-.533.767-1.25 1.117-2.15 1.05l-9.1-.15c-1.067-.033-1.85.433-2.35 1.4-.467.967-.383 1.867.25 2.7l5.4 7.35c.567.733.683 1.517.35 2.35l-2.95 8.65c-.367 1-.167 1.883.6 2.65.733.733 1.617.933 2.65.6l8.65-2.9c.867-.267 1.65-.133 2.35.4l7.3 5.5c.833.633 1.733.717 2.7.25s1.433-1.233 1.4-2.3l-.05-9.15c0-.933.367-1.633 1.1-2.1l7.45-5.25z"/><path fill="#39BAAF" d="M1049.462 383.553c.233-1.133.883-1.917 1.95-2.35l10.95-4.55c1.267-.533 1.95-1.483 2.05-2.85.1-1.367-.45-2.4-1.65-3.1l-10.25-5.9c-1-.567-1.55-1.45-1.65-2.65l-.95-11.8c-.1-1.367-.783-2.3-2.05-2.8-1.267-.533-2.417-.333-3.45.6l-8.8 7.9c-.9.8-1.9 1.067-3 .8l-11.55-2.8c-1.333-.333-2.433.033-3.3 1.1-.867 1.067-1.033 2.233-.5 3.5l4.8 10.8c.5 1.1.433 2.133-.2 3.1l-6.2 10.1c-.7 1.167-.683 2.333.05 3.5.733 1.2 1.783 1.717 3.15 1.55l11.8-1.25c1.133-.1 2.083.283 2.85 1.15l7.7 9c.9 1.067 2.017 1.433 3.35 1.1 1.333-.333 2.133-1.183 2.4-2.55l2.5-11.6z"/><path fill="#FFF" d="M277.062 282.553c-.667.6-1.433.8-2.3.6l-8.9-2.15c-1.033-.233-1.883.05-2.55.85-.7.833-.833 1.733-.4 2.7l3.75 8.35c.367.767.317 1.567-.15 2.4l-4.8 7.8c-.533.9-.517 1.8.05 2.7s1.367 1.283 2.4 1.15l9.1-.95c.9-.067 1.633.233 2.2.9l5.95 6.95c.7.8 1.567 1.067 2.6.8 1-.233 1.617-.867 1.85-1.9l1.9-8.95c.233-.933.75-1.55 1.55-1.85l8.45-3.5c.967-.4 1.5-1.133 1.6-2.2.067-1.067-.367-1.867-1.3-2.4l-7.9-4.55c-.8-.5-1.233-1.183-1.3-2.05l-.7-9.1c-.1-1.067-.633-1.783-1.6-2.15-1-.4-1.9-.25-2.7.45l-6.8 6.1z"/><path fill="#F19467" d="M397.112 38.653c-.567.767-1.283 1.117-2.15 1.05l-9.15-.15c-1.033-.033-1.8.433-2.3 1.4-.5.967-.433 1.867.2 2.7l5.45 7.35c.5.667.617 1.45.35 2.35l-3 8.65c-.333 1-.133 1.883.6 2.65.767.767 1.65.967 2.65.6l8.65-2.9c.867-.267 1.667-.133 2.4.4l7.3 5.5c.833.633 1.717.717 2.65.25.967-.467 1.45-1.233 1.45-2.3l-.1-9.15c0-.933.367-1.633 1.1-2.1l7.5-5.25c.867-.633 1.233-1.467 1.1-2.5-.167-1.033-.767-1.717-1.8-2.05l-8.7-2.75c-.867-.267-1.433-.833-1.7-1.7l-2.65-8.75c-.333-1.033-1.017-1.633-2.05-1.8-1.033-.167-1.867.183-2.5 1.05l-5.3 7.45z"/><path fill="#FFF" d="M35.562 320.103c.633-.733.75-1.55.35-2.45s-1.083-1.383-2.05-1.45l-8.5-.4c-.8 0-1.433-.367-1.9-1.1l-4.5-7.2c-.533-.833-1.283-1.217-2.25-1.15-.967.1-1.633.617-2 1.55l-3 7.95c-.267.767-.817 1.267-1.65 1.5l-8.25 2.05c-.933.233-1.517.833-1.75 1.8-.2.967.083 1.75.85 2.35l6.65 5.3c.667.533.967 1.217.9 2.05l-.6 8.45c-.067 1 .333 1.75 1.2 2.25.833.5 1.667.467 2.5-.1l7.05-4.65c.667-.467 1.4-.533 2.2-.2l7.9 3.15c.9.367 1.717.217 2.45-.45.767-.633 1.017-1.433.75-2.4l-2.25-8.15c-.267-.8-.117-1.533.45-2.2l5.45-6.5z"/><path fill="#F0C683" d="M662.262 395.703c.167-2.233 1.283-3.75 3.35-4.55 2.067-.833 3.933-.517 5.6.95l14.3 12.85c1.367 1.267 2.983 1.683 4.85 1.25l18.7-4.5c2.167-.533 3.967.067 5.4 1.8 1.433 1.733 1.683 3.617.75 5.65l-7.8 17.55c-.767 1.767-.65 3.433.35 5l10.05 16.35c1.133 1.933 1.117 3.833-.05 5.7-1.2 1.9-2.917 2.733-5.15 2.5l-19.1-2c-1.867-.2-3.417.417-4.65 1.85l-12.45 14.6c-1.467 1.7-3.283 2.283-5.45 1.75-2.167-.567-3.483-1.933-3.95-4.1l-4-18.8c-.367-1.8-1.433-3.083-3.2-3.85l-17.75-7.35c-2.067-.867-3.167-2.4-3.3-4.6-.133-2.233.767-3.917 2.7-5.05l16.6-9.6c1.633-.967 2.533-2.383 2.7-4.25l1.5-19.15zm-394.2-299.1c-.167-2.233-1.283-3.75-3.35-4.55-2.067-.833-3.933-.517-5.6.95l-14.3 12.85c-1.367 1.267-2.983 1.683-4.85 1.25l-18.7-4.5c-2.167-.533-3.967.067-5.4 1.8-1.433 1.733-1.683 3.617-.75 5.65l7.8 17.55c.767 1.767.65 3.433-.35 5l-10.05 16.35c-1.133 1.933-1.117 3.833.05 5.7 1.2 1.9 2.917 2.733 5.15 2.5l19.1-2c1.867-.2 3.417.417 4.65 1.85l12.45 14.6c1.467 1.7 3.283 2.283 5.45 1.75 2.167-.567 3.483-1.933 3.95-4.1l4-18.8c.367-1.8 1.433-3.083 3.2-3.85l17.75-7.35c2.067-.867 3.167-2.4 3.3-4.6.133-2.233-.767-3.917-2.7-5.05l-16.6-9.6c-1.633-.967-2.533-2.383-2.7-4.25l-1.5-19.15zm355.239-45.45c-.1-1.34-.77-2.25-2.01-2.73-1.24-.5-2.36-.31-3.36.57l-8.58 7.71c-.82.76-1.79 1.01-2.91.75l-11.219-2.7c-1.3-.32-2.38.04-3.24 1.08-.86 1.04-1.01 2.17-.45 3.39l4.68 10.529c.46 1.06.39 2.06-.21 3l-6.03 9.81c-.68 1.16-.67 2.3.03 3.42.72 1.14 1.75 1.64 3.09 1.5l11.46-1.2c1.12-.12 2.05.25 2.79 1.11l7.47 8.759c.88 1.02 1.969 1.37 3.27 1.05 1.3-.34 2.089-1.16 2.37-2.46l2.399-11.28c.22-1.08.86-1.85 1.92-2.31l10.65-4.41c1.24-.52 1.9-1.44 1.98-2.76.08-1.339-.46-2.35-1.62-3.029l-9.96-5.76c-.98-.58-1.52-1.43-1.62-2.55l-.9-11.49zm-185.309 559.8c.08-1.072.616-1.8 1.608-2.184.992-.4 1.888-.248 2.688.456l6.863 6.168c.656.608 1.432.807 2.328.6l8.975-2.16c1.04-.256 1.904.032 2.592.864.688.831.808 1.736.36 2.711l-3.743 8.424c-.369.848-.312 1.647.168 2.4l4.823 7.847c.544.928.536 1.84-.024 2.736-.576.912-1.4 1.312-2.472 1.2l-9.167-.96c-.896-.096-1.64.2-2.232.888l-5.975 7.007c-.705.816-1.576 1.096-2.616.84-1.04-.272-1.672-.928-1.896-1.968l-1.92-9.023c-.176-.864-.688-1.48-1.536-1.848l-8.52-3.528c-.991-.416-1.52-1.152-1.583-2.207-.064-1.072.368-1.88 1.296-2.424l7.967-4.608c.784-.464 1.216-1.144 1.296-2.04l.72-9.191zm1559.959-4.3c-.1-1.34-.77-2.25-2.01-2.73-1.24-.5-2.36-.31-3.36.57l-8.58 7.71c-.82.76-1.79 1.01-2.91.75l-11.219-2.7c-1.3-.32-2.38.04-3.24 1.08-.86 1.04-1.01 2.17-.45 3.39l4.68 10.529c.46 1.06.39 2.06-.21 3l-6.03 9.81c-.68 1.16-.67 2.3.03 3.42.72 1.14 1.75 1.64 3.09 1.5l11.46-1.2c1.12-.12 2.05.25 2.79 1.11l7.47 8.759c.88 1.02 1.969 1.37 3.27 1.05 1.3-.34 2.089-1.16 2.37-2.46l2.399-11.28c.22-1.08.86-1.85 1.92-2.31l10.65-4.41c1.24-.52 1.9-1.44 1.98-2.76.08-1.339-.46-2.35-1.62-3.029l-9.96-5.76c-.98-.58-1.52-1.43-1.62-2.55l-.9-11.49zm22.561-601.65c-.167-2.233-1.283-3.75-3.35-4.55-2.067-.833-3.933-.517-5.6.95l-14.3 12.85c-1.367 1.267-2.983 1.683-4.85 1.25l-18.7-4.5c-2.167-.533-3.967.067-5.4 1.8-1.433 1.733-1.683 3.617-.75 5.65l7.8 17.55c.767 1.767.65 3.433-.35 5l-10.05 16.35c-1.133 1.933-1.117 3.833.05 5.7 1.2 1.9 2.917 2.733 5.15 2.5l19.1-2c1.867-.2 3.417.417 4.65 1.85l12.45 14.6c1.467 1.7 3.283 2.283 5.45 1.75 2.167-.567 3.483-1.933 3.95-4.1l4-18.8c.367-1.8 1.433-3.083 3.2-3.85l17.75-7.35c2.067-.867 3.167-2.4 3.3-4.6.133-2.233-.767-3.917-2.7-5.05l-16.6-9.6c-1.633-.967-2.533-2.383-2.7-4.25l-1.5-19.15z"/><path fill="#FFF" d="M1487.512 190.713c-.4 1.36-1.28 2.24-2.64 2.64l-12.6 3.36c-1.84.52-2.76 1.72-2.76 3.6 0 1.84.92 3.02 2.76 3.54l12.6 3.36c1.36.4 2.24 1.28 2.64 2.64l3.36 12.6c.52 1.84 1.72 2.76 3.6 2.76 1.84 0 3.02-.92 3.54-2.76l3.36-12.6c.4-1.36 1.28-2.24 2.64-2.64l12.6-3.36c1.84-.52 2.76-1.7 2.76-3.54 0-1.88-.92-3.08-2.76-3.6l-12.6-3.36c-1.36-.4-2.24-1.28-2.64-2.64l-3.36-12.6c-.52-1.84-1.7-2.76-3.54-2.76-1.88 0-3.08.92-3.6 2.76l-3.36 12.6z"/></svg>