<svg xmlns="http://www.w3.org/2000/svg" width="79.901" height="81.944" viewBox="0 0 79.901 81.944"><path fill="#F0C683" d="M56.388 5.003c-.167-2.233-1.283-3.75-3.35-4.55-2.067-.833-3.933-.517-5.6.95l-14.3 12.85c-1.367 1.267-2.983 1.683-4.85 1.25l-18.7-4.5c-2.167-.533-3.967.067-5.4 1.8-1.433 1.733-1.683 3.617-.75 5.65l7.8 17.55c.767 1.767.65 3.433-.35 5L.838 57.353c-1.133 1.933-1.117 3.833.05 5.7 1.2 1.9 2.917 2.733 5.15 2.5l19.1-2c1.867-.2 3.417.417 4.65 1.85l12.45 14.6c1.467 1.7 3.283 2.283 5.45 1.75 2.167-.567 3.483-1.933 3.95-4.1l4-18.8c.367-1.8 1.433-3.083 3.2-3.85l17.75-7.35c2.067-.867 3.167-2.4 3.3-4.6.133-2.233-.767-3.917-2.7-5.05l-16.6-9.6c-1.633-.967-2.533-2.383-2.7-4.25l-1.5-19.15z"/></svg>